#!OML:ASF E:\id_vita\Project 1\Capture day 1\Session 1\Female.ASF
:FULLY-SPECIFIED
:DEGREES
504
root 34.8082 16.3414 -0.245992 -157.057 -77.2935 170.165
lowerback -8.71778 2.23063 -4.99867
upperback -4.57696 3.16389 -1.90506
thorax -0.0388319 1.5634 1.09579
lowerneck 16.5711 2.43578 -2.59186
upperneck -23.9638 3.71292 4.95535
head -10.5782 1.21099 1.71522
rclavicle -1.60363e-014 -2.18663e-014
rhumerus -49.2004 -24.917 -67.2567
rradius 24.7661
rwrist 15.2067
rhand -14.6189 7.21155
rfingers 7.12502
rthumb 11.5323 -22.4512
lclavicle -1.60363e-014 -2.18663e-014
lhumerus -76.2324 46.9928 18.4176
lradius 13.8443
lwrist -56.9722
lhand -3.25118 26.9861
lfingers 7.12502
lthumb 22.4729 55.6985
rfemur -21.5218 2.9787 21.4893
rtibia 34.7326
rfoot -14.0991 -20.3744
rtoes -11.3243
lfemur -25.8141 0.625553 -21.9691
ltibia 45.3981
lfoot -21.9426 2.2781
ltoes -6.34009
505
root 34.8086 16.3431 -0.22729 -157.025 -77.4605 169.966
lowerback -8.39967 2.1785 -5.03201
upperback -4.71152 3.06748 -1.82604
thorax -0.354888 1.52486 1.17056
lowerneck 16.9184 2.46346 -2.64519
upperneck -24.0636 3.73217 4.92008
head -10.6833 1.22467 1.70769
rclavicle -4.07276e-014 1.59028e-014
rhumerus -48.8375 -24.0323 -68.2422
rradius 25.3348
rwrist 14.3714
rhand -14.1994 7.4051
rfingers 7.12502
rthumb 11.9368 -22.2346
lclavicle -4.07276e-014 1.59028e-014
lhumerus -70.31 45.4015 26.8128
lradius 14.5777
lwrist -51.9021
lhand -3.58823 27.264
lfingers 7.12502
lthumb 22.1493 56.0152
rfemur -21.4542 2.64026 21.4598
rtibia 34.9626
rfoot -14.1475 -19.9967
rtoes -10.9425
lfemur -25.5066 0.538156 -22.0213
ltibia 45.1059
lfoot -21.928 2.13271
ltoes -5.87732
506
root 34.8063 16.3441 -0.210983 -156.309 -77.7119 168.949
lowerback -8.45355 2.05352 -5.14561
upperback -4.32243 2.94813 -1.83988
thorax 0.0808523 1.45896 1.22382
lowerneck 16.436 2.47494 -2.66674
upperneck -24.2218 3.74105 4.93393
head -10.6489 1.22648 1.721
rclavicle 1.07188e-014 -2.50469e-014
rhumerus -47.6712 -24.1321 -69.0496
rradius 25.4015
rwrist 14.4586
rhand -13.859 8.29435
rfingers 7.12502
rthumb 12.2651 -21.326
lclavicle 1.07188e-014 -2.50469e-014
lhumerus -65.2772 44.5688 33.4764
lradius 15.2454
lwrist -48.2191
lhand -4.19224 27.2238
lfingers 7.12502
lthumb 21.5693 56.0426
rfemur -21.2285 2.19598 21.3054
rtibia 35.177
rfoot -14.3131 -19.9467
rtoes -10.8735
lfemur -25.039 0.403446 -22.2216
ltibia 44.8049
lfoot -21.9955 2.02136
ltoes -5.58219
507
root 34.8039 16.3449 -0.197671 -155.426 -77.927 167.843
lowerback -8.31404 1.97371 -5.13213
upperback -4.43527 2.82077 -1.98954
thorax -0.0975752 1.39595 1.04404
lowerneck 17.1592 2.54017 -2.70237
upperneck -24.4601 3.89626 5.1765
head -10.892 1.25868 1.79107
rclavicle -3.06486e-014 1.15295e-014
rhumerus -47.4827 -23.5561 -70.0531
rradius 25.7737
rwrist 14.3015
rhand -14.0163 8.87371
rfingers 7.12502
rthumb 12.1133 -20.7556
lclavicle -3.06486e-014 1.15295e-014
lhumerus -61.2773 42.5779 38.9696
lradius 15.9799
lwrist -44.6458
lhand -4.82658 26.8009
lfingers 7.12502
lthumb 20.96 55.6884
rfemur -21.093 1.85362 21.1243
rtibia 35.3879
rfoot -14.095 -19.8522
rtoes -10.4241
lfemur -24.6639 0.287788 -22.4362
ltibia 44.5217
lfoot -22.161 1.9696
ltoes -5.53077
508
root 34.8018 16.3513 -0.180221 -155.308 -77.8138 167.693
lowerback -8.52302 1.96297 -5.12416
upperback -4.15582 2.84346 -2.05815
thorax 0.310933 1.39734 0.986274
lowerneck 16.2671 2.58425 -2.67746
upperneck -24.2472 3.97554 5.26097
head -10.6446 1.29301 1.80953
rclavicle -2.18042e-014 6.36111e-015
rhumerus -46.2889 -22.8159 -71.7107
rradius 26.3822
rwrist 13.8568
rhand -14.529 8.4755
rfingers 7.12502
rthumb 11.619 -21.1824
lclavicle -2.18042e-014 6.36111e-015
lhumerus -57.2704 41.4233 44.0241
lradius 16.7307
lwrist -41.6248
lhand -5.18372 26.7467
lfingers 7.12502
lthumb 20.6169 55.6718
rfemur -21.2132 1.71024 20.9846
rtibia 35.6107
rfoot -13.954 -19.9222
rtoes -12.8193
lfemur -24.509 0.411946 -22.6049
ltibia 44.2806
lfoot -22.2485 1.97017
ltoes -5.36316
509
root 34.8018 16.3554 -0.157681 -155.848 -77.4602 168.285
lowerback -8.73146 2.13805 -4.996
upperback -4.27829 3.06725 -2.10234
thorax 0.296044 1.50548 0.892742
lowerneck 16.9748 2.54542 -2.51654
upperneck -24.495 3.94618 5.14356
head -10.8667 1.26737 1.74239
rclavicle 3.21193e-014 2.38542e-015
rhumerus -45.9877 -22.043 -72.763
rradius 27.0092
rwrist 13.3203
rhand -14.812 8.10635
rfingers 7.12502
rthumb 11.3461 -21.5667
lclavicle 3.21193e-014 2.38542e-015
lhumerus -54.0207 39.3098 48.6368
lradius 17.5526
lwrist -38.6642
lhand -5.48693 26.9172
lfingers 7.12502
lthumb 20.3255 55.8736
rfemur -21.4793 1.69291 20.8826
rtibia 35.8606
rfoot -13.793 -19.4555
rtoes -13.448
lfemur -24.4413 0.701684 -22.7248
ltibia 44.087
lfoot -22.3455 2.06306
ltoes -4.83534
510
root 34.8014 16.3537 -0.137018 -156.108 -77.3029 168.487
lowerback -8.62308 2.21231 -5.02669
upperback -4.34434 3.15616 -2.04992
thorax 0.158316 1.55441 0.964188
lowerneck 17.0986 2.50833 -2.42599
upperneck -24.6103 3.88086 4.9891
head -10.9251 1.2445 1.6812
rclavicle -5.80731e-014 2.70347e-014
rhumerus -45.4454 -21.2642 -73.6689
rradius 27.4207
rwrist 12.8082
rhand -14.9112 8.18289
rfingers 7.12502
rthumb 11.2504 -21.4954
lclavicle -5.80731e-014 2.70347e-014
lhumerus -51.2411 37.4079 52.7011
lradius 18.3472
lwrist -36.1624
lhand -6.00843 26.8776
lfingers 7.12502
lthumb 19.8243 55.8866
rfemur -21.6231 1.5903 20.7835
rtibia 36.1623
rfoot -13.7541 -19.1
rtoes -13.8054
lfemur -24.2647 0.863133 -22.8355
ltibia 43.9092
lfoot -22.4585 2.16755
ltoes -4.49318
511
root 34.8039 16.3532 -0.118628 -155.579 -77.4708 167.876
lowerback -8.43364 2.07537 -5.25261
upperback -4.48015 2.96708 -1.88249
thorax -0.0994861 1.472 1.23548
lowerneck 17.3323 2.55 -2.57807
upperneck -24.6249 3.86699 4.87016
head -10.9757 1.26671 1.66398
rclavicle -1.23138e-014 -2.3059e-014
rhumerus -45.0621 -20.1413 -74.4426
rradius 27.8437
rwrist 12.2895
rhand -14.9942 8.31872
rfingers 7.12502
rthumb 11.1704 -21.3639
lclavicle -1.23138e-014 -2.3059e-014
lhumerus -49.2921 35.5836 56.1302
lradius 19.2816
lwrist -33.7979
lhand -6.61885 26.8229
lfingers 7.12502
lthumb 19.2374 55.8914
rfemur -21.7205 1.30575 20.6446
rtibia 36.5046
rfoot -13.8278 -18.9688
rtoes -13.933
lfemur -24.1281 0.823963 -22.9917
ltibia 43.718
lfoot -22.507 2.17704
ltoes -4.91393
512
root 34.8098 16.3582 -0.100727 -154.983 -77.666 167.284
lowerback -8.40322 1.98066 -5.16271
upperback -4.60549 2.82031 -1.96979
thorax -0.228562 1.39761 1.08032
lowerneck 17.6507 2.5542 -2.56546
upperneck -24.6323 3.90222 4.95324
head -11.0443 1.26868 1.6847
rclavicle -3.77753e-014 3.45885e-014
rhumerus -44.7919 -19.5891 -75.3334
rradius 28.3184
rwrist 11.9855
rhand -15.0674 8.56135
rfingers 7.12502
rthumb 11.0998 -21.1251
lclavicle -3.77753e-014 3.45885e-014
lhumerus -47.4526 33.9398 58.6624
lradius 20.0625
lwrist -31.9713
lhand -7.21151 26.1085
lfingers 7.12502
lthumb 18.6674 55.2328
rfemur -21.8953 1.00319 20.5164
rtibia 36.8358
rfoot -14.0565 -18.7524
rtoes -13.1892
lfemur -24.0884 0.726521 -23.1244
ltibia 43.5126
lfoot -22.5229 2.20662
ltoes -5.50602
513
root 34.813 16.3634 -0.0824444 -155.1 -77.678 167.454
lowerback -8.34724 1.96563 -5.08475
upperback -4.6345 2.78934 -1.964
thorax -0.283741 1.38229 1.03784
lowerneck 17.2515 2.56013 -2.59556
upperneck -24.3647 3.90539 4.99092
head -10.8683 1.27838 1.70207
rclavicle -3.63279e-014 3.97569e-015
rhumerus -44.2803 -18.825 -76.3762
rradius 29.1995
rwrist 11.55
rhand -14.9373 8.05389
rfingers 7.12502
rthumb 11.2252 -21.6258
lclavicle -3.63279e-014 3.97569e-015
lhumerus -45.5329 32.8094 60.9678
lradius 20.6912
lwrist -30.7588
lhand -7.77354 25.1228
lfingers 7.12502
lthumb 18.1267 54.2981
rfemur -22.1429 0.805125 20.4676
rtibia 37.1616
rfoot -14.1824 -18.4107
rtoes -12.9146
lfemur -24.0244 0.716056 -23.1613
ltibia 43.2907
lfoot -22.4567 2.32196
ltoes -5.27583
514
root 34.8128 16.3642 -0.0661623 -155.764 -77.6389 168.111
lowerback -8.63878 2.00561 -5.00614
upperback -4.45408 2.87147 -1.90274
thorax 0.0612205 1.41585 1.07983
lowerneck 17.0283 2.54116 -2.5093
upperneck -24.4257 3.8756 4.89486
head -10.8419 1.2681 1.65958
rclavicle -5.60945e-015 -1.98785e-014
rhumerus -43.5992 -18.1682 -77.3073
rradius 29.9377
rwrist 11.0342
rhand -14.8571 7.88867
rfingers 7.12502
rthumb 11.3026 -21.7868
lclavicle -5.60945e-015 -1.98785e-014
lhumerus -43.4378 31.8135 63.2941
lradius 21.2558
lwrist -29.7408
lhand -8.24482 24.58
lfingers 7.12502
lthumb 17.6733 53.7968
rfemur -22.3416 0.733484 20.518
rtibia 37.4707
rfoot -14.0452 -18.2052
rtoes -13.6811
lfemur -23.8858 0.805044 -23.1031
ltibia 43.0705
lfoot -22.4215 2.36117
ltoes -4.66612
